<?xml version="1.0" standalone="no"?>
<!DOCTYPE svg PUBLIC "-//W3C//DTD SVG 20010904//EN"
 "http://www.w3.org/TR/2001/REC-SVG-20010904/DTD/svg10.dtd">
<svg version="1.0" xmlns="http://www.w3.org/2000/svg"
 width="200.000000pt" height="200.000000pt" viewBox="0 0 200.000000 200.000000"
 preserveAspectRatio="xMidYMid meet">
<metadata>
Created by potrace 1.14, written by Peter Selinger 2001-2017
</metadata>
<g transform="translate(0.000000,200.000000) scale(0.100000,-0.100000)"
fill="#000000" stroke="none">
<path d="M0 1000 l0 -1000 1000 0 1000 0 0 1000 0 1000 -1000 0 -1000 0 0
-1000z m1067 413 c2 -5 -6 -22 -18 -37 -16 -21 -28 -26 -52 -24 -32 3 -74 48
-63 67 9 13 129 8 133 -6z m333 -143 c0 -111 42 -100 -400 -100 -441 0 -400
-10 -400 96 l0 64 143 0 c78 1 246 1 372 1 127 0 239 4 250 8 11 5 23 7 28 4
4 -2 7 -35 7 -73z"/>
<path d="M960 1270 c-152 -8 -239 -38 -240 -82 0 -5 126 -8 280 -8 166 0 280
4 280 9 0 14 -30 41 -45 41 -7 0 -37 11 -67 25 -29 14 -60 24 -68 23 -8 -1
-71 -5 -140 -8z"/>
</g>
</svg>
